<svg width="1200" height="400" viewBox="0 0 1200 400" fill="none" xmlns="http://www.w3.org/2000/svg">
  <!-- Sky background -->
  <rect width="1200" height="400" fill="#87CEEB"/>
  
  <!-- Sun -->
  <circle cx="900" cy="80" r="50" fill="#FFD700"/>
  <circle cx="900" cy="80" r="60" stroke="#FFD700" stroke-width="5" stroke-opacity="0.5"/>
  <circle cx="900" cy="80" r="70" stroke="#FFD700" stroke-width="3" stroke-opacity="0.3"/>
  
  <!-- Clouds -->
  <g fill="#FFFFFF" opacity="0.8">
    <ellipse cx="200" cy="100" rx="60" ry="40"/>
    <ellipse cx="250" cy="90" rx="50" ry="35"/>
    <ellipse cx="300" cy="110" rx="55" ry="30"/>
    
    <ellipse cx="600" cy="80" rx="70" ry="35"/>
    <ellipse cx="650" cy="70" rx="50" ry="30"/>
    <ellipse cx="700" cy="90" rx="60" ry="25"/>
    
    <ellipse cx="1000" cy="120" rx="65" ry="35"/>
    <ellipse cx="1050" cy="110" rx="55" ry="30"/>
    <ellipse cx="1100" cy="130" rx="50" ry="25"/>
  </g>
  
  <!-- Distant islands -->
  <path d="M50 200C50 180 80 170 100 180C120 170 150 180 170 170C190 160 220 170 240 160C260 170 280 160 300 180C300 200 50 200 50 200Z" fill="#228B22"/>
  <path d="M800 190C800 170 830 160 850 170C870 160 900 170 920 160C940 150 970 160 990 150C1010 160 1030 150 1050 170C1050 190 800 190 800 190Z" fill="#228B22"/>
  
  <!-- Water surface -->
  <rect x="0" y="200" width="1200" height="200" fill="#1E90FF"/>
  
  <!-- Water surface waves (lighter blue) -->
  <path d="M0 220C40 210 80 220 120 210C160 200 200 210 240 200C280 210 320 200 360 210C400 220 440 210 480 200C520 210 560 220 600 210C640 200 680 210 720 220C760 210 800 200 840 210C880 220 920 210 960 200C1000 210 1040 220 1080 210C1120 200 1160 210 1200 220L1200 400L0 400Z" fill="#4169E1" opacity="0.5"/>
  
  <!-- Water highlights - reflections -->
  <g fill="#FFFFFF" opacity="0.2">
    <path d="M100 250L120 240L140 250L120 260Z"/>
    <path d="M300 260L320 250L340 260L320 270Z"/>
    <path d="M500 240L520 230L540 240L520 250Z"/>
    <path d="M700 255L720 245L740 255L720 265Z"/>
    <path d="M900 245L920 235L940 245L920 255Z"/>
    <path d="M1100 260L1120 250L1140 260L1120 270Z"/>
  </g>
  
  <!-- Fish jumping -->
  <path d="M200 230C210 210 220 220 230 230C220 240 210 240 200 230Z" fill="#FF6347"/>
  <path d="M850 220C860 200 870 210 880 220C870 230 860 230 850 220Z" fill="#FF6347"/>
  
  <!-- Water lilies -->
  <g>
    <circle cx="400" cy="300" r="20" fill="#228B22"/>
    <circle cx="400" cy="300" r="15" fill="#9932CC"/>
  </g>
  <g>
    <circle cx="600" cy="320" r="25" fill="#228B22"/>
    <circle cx="600" cy="320" r="18" fill="#9932CC"/>
  </g>
  <g>
    <circle cx="800" cy="290" r="22" fill="#228B22"/>
    <circle cx="800" cy="290" r="16" fill="#9932CC"/>
  </g>
</svg>
