<svg width="1200" height="400" viewBox="0 0 1200 400" fill="none" xmlns="http://www.w3.org/2000/svg">
  <!-- Sky background -->
  <rect width="1200" height="400" fill="#87CEEB"/>
  
  <!-- Sun -->
  <circle cx="1000" cy="80" r="50" fill="#FFD700"/>
  <circle cx="1000" cy="80" r="60" stroke="#FFD700" stroke-width="5" stroke-opacity="0.5"/>
  <circle cx="1000" cy="80" r="70" stroke="#FFD700" stroke-width="3" stroke-opacity="0.3"/>

  <!-- Distant mountains -->
  <path d="M0 200L100 150L200 180L300 140L400 190L500 130L600 170L700 120L800 160L900 130L1000 180L1100 140L1200 170L1200 400L0 400Z" fill="#6A5ACD" fill-opacity="0.5"/>

  <!-- Middle ground hills -->
  <path d="M0 250L50 240L100 260L150 230L200 250L250 240L300 260L350 240L400 260L450 230L500 250L550 240L600 260L650 240L700 250L750 230L800 250L850 240L900 260L950 240L1000 250L1050 230L1100 250L1150 240L1200 260L1200 400L0 400Z" fill="#228B22" fill-opacity="0.7"/>

  <!-- Foreground grass -->
  <rect x="0" y="280" width="1200" height="120" fill="#32CD32"/>

  <!-- Detailed grass tufts -->
  <g fill="#228B22">
    <path d="M50 280C50 280 40 260 30 270C20 280 20 280 20 280H50Z"/>
    <path d="M100 280C100 280 90 250 80 260C70 270 70 280 70 280H100Z"/>
    <path d="M150 280C150 280 140 260 130 270C120 280 120 280 120 280H150Z"/>
    <path d="M200 280C200 280 190 250 180 260C170 270 170 280 170 280H200Z"/>
    <path d="M250 280C250 280 240 260 230 270C220 280 220 280 220 280H250Z"/>
    <path d="M300 280C300 280 290 250 280 260C270 270 270 280 270 280H300Z"/>
    <path d="M350 280C350 280 340 260 330 270C320 280 320 280 320 280H350Z"/>
    <path d="M400 280C400 280 390 250 380 260C370 270 370 280 370 280H400Z"/>
    <path d="M450 280C450 280 440 260 430 270C420 280 420 280 420 280H450Z"/>
    <path d="M500 280C500 280 490 250 480 260C470 270 470 280 470 280H500Z"/>
    <path d="M550 280C550 280 540 260 530 270C520 280 520 280 520 280H550Z"/>
    <path d="M600 280C600 280 590 250 580 260C570 270 570 280 570 280H600Z"/>
    <path d="M650 280C650 280 640 260 630 270C620 280 620 280 620 280H650Z"/>
    <path d="M700 280C700 280 690 250 680 260C670 270 670 280 670 280H700Z"/>
    <path d="M750 280C750 280 740 260 730 270C720 280 720 280 720 280H750Z"/>
    <path d="M800 280C800 280 790 250 780 260C770 270 770 280 770 280H800Z"/>
    <path d="M850 280C850 280 840 260 830 270C820 280 820 280 820 280H850Z"/>
    <path d="M900 280C900 280 890 250 880 260C870 270 870 280 870 280H900Z"/>
    <path d="M950 280C950 280 940 260 930 270C920 280 920 280 920 280H950Z"/>
    <path d="M1000 280C1000 280 990 250 980 260C970 270 970 280 970 280H1000Z"/>
    <path d="M1050 280C1050 280 1040 260 1030 270C1020 280 1020 280 1020 280H1050Z"/>
    <path d="M1100 280C1100 280 1090 250 1080 260C1070 270 1070 280 1070 280H1100Z"/>
    <path d="M1150 280C1150 280 1140 260 1130 270C1120 280 1120 280 1120 280H1150Z"/>
    <path d="M1200 280C1200 280 1190 250 1180 260C1170 270 1170 280 1170 280H1200Z"/>
  </g>

  <!-- Trees in background -->
  <g fill="#006400">
    <ellipse cx="200" cy="230" rx="30" ry="40"/>
    <ellipse cx="500" cy="220" rx="35" ry="45"/>
    <ellipse cx="800" cy="230" rx="30" ry="40"/>
    <ellipse cx="1100" cy="225" rx="35" ry="45"/>
  </g>

  <!-- Flowers -->
  <g fill="#FF69B4">
    <circle cx="120" cy="300" r="5"/>
    <circle cx="350" cy="310" r="5"/>
    <circle cx="670" cy="305" r="5"/>
    <circle cx="890" cy="300" r="5"/>
    <circle cx="1120" cy="310" r="5"/>
  </g>
  <g fill="#FFFF00">
    <circle cx="230" cy="310" r="5"/>
    <circle cx="480" cy="300" r="5"/>
    <circle cx="780" cy="310" r="5"/>
    <circle cx="980" cy="305" r="5"/>
    <circle cx="1050" cy="300" r="5"/>
  </g>
</svg>
