<svg width="1200" height="400" viewBox="0 0 1200 400" fill="none" xmlns="http://www.w3.org/2000/svg">
  <!-- Sky gradient -->
  <rect width="1200" height="400" fill="url(#skyGradient)"/>
  
  <!-- Distant mountains -->
  <path d="M0 180L100 120L200 170L300 100L400 150L500 80L600 140L700 90L800 160L900 110L1000 170L1100 130L1200 180L1200 400L0 400Z" fill="#6A5ACD" fill-opacity="0.6"/>
  
  <!-- Middle mountains -->
  <path d="M0 230L80 160L160 220L240 140L320 200L400 120L480 190L560 150L640 210L720 140L800 190L880 130L960 200L1040 150L1120 220L1200 160L1200 400L0 400Z" fill="#483D8B"/>
  
  <!-- Foreground mountains -->
  <path d="M0 280L50 220L100 260L150 180L200 240L250 190L300 250L350 200L400 270L450 210L500 260L550 200L600 250L650 190L700 240L750 170L800 230L850 190L900 260L950 210L1000 270L1050 220L1100 270L1150 210L1200 260L1200 400L0 400Z" fill="#2F4F4F"/>
  
  <!-- Mountain snow caps -->
  <path d="M300 250L350 200L400 270L350 230Z" fill="white"/>
  <path d="M750 170L800 230L750 200Z" fill="white"/>
  <path d="M1050 220L1100 270L1050 250Z" fill="white"/>
  <path d="M150 180L200 240L150 210Z" fill="white"/>
  <path d="M550 200L600 250L550 230Z" fill="white"/>
  
  <!-- Ground foreground -->
  <path d="M0 330C50 320 100 330 150 325C200 320 250 330 300 325C350 320 400 330 450 325C500 320 550 330 600 325C650 320 700 330 750 325C800 320 850 330 900 325C950 320 1000 330 1050 325C1100 320 1150 330 1200 325L1200 400L0 400Z" fill="#696969"/>
  
  <!-- Rocks and boulders -->
  <ellipse cx="200" cy="350" rx="30" ry="20" fill="#808080"/>
  <ellipse cx="500" cy="360" rx="40" ry="25" fill="#A9A9A9"/>
  <ellipse cx="800" cy="350" rx="35" ry="20" fill="#808080"/>
  <ellipse cx="1000" cy="370" rx="45" ry="30" fill="#A9A9A9"/>
  
  <!-- Small vegetation -->
  <g fill="#2E8B57">
    <ellipse cx="100" cy="360" rx="15" ry="10"/>
    <ellipse cx="300" cy="370" rx="12" ry="8"/>
    <ellipse cx="600" cy="365" rx="18" ry="12"/>
    <ellipse cx="900" cy="375" rx="14" ry="9"/>
    <ellipse cx="1100" cy="360" rx="16" ry="11"/>
  </g>
  
  <!-- Flying birds -->
  <path d="M300 100C305 95 310 100 315 95C320 100 325 95 330 100" stroke="#000000" stroke-width="2"/>
  <path d="M700 120C705 115 710 120 715 115C720 120 725 115 730 120" stroke="#000000" stroke-width="2"/>
  <path d="M900 90C905 85 910 90 915 85C920 90 925 85 930 90" stroke="#000000" stroke-width="2"/>
  
  <!-- Sun or moon -->
  <circle cx="1000" cy="100" r="40" fill="#FFD700"/>
  
  <!-- Clouds -->
  <g fill="white" opacity="0.7">
    <ellipse cx="200" cy="150" rx="50" ry="20"/>
    <ellipse cx="500" cy="100" rx="60" ry="25"/>
    <ellipse cx="800" cy="130" rx="55" ry="22"/>
  </g>
  
  <!-- Defs for gradients -->
  <defs>
    <linearGradient id="skyGradient" x1="0" y1="0" x2="0" y2="1" gradientUnits="objectBoundingBox">
      <stop offset="0" stop-color="#1E90FF"/>
      <stop offset="1" stop-color="#87CEEB"/>
    </linearGradient>
  </defs>
</svg>
