<svg width="200" height="200" viewBox="0 0 200 200" fill="none" xmlns="http://www.w3.org/2000/svg">
  <circle cx="100" cy="100" r="80" fill="#2196F3" fill-opacity="0.2"/>
  <circle cx="100" cy="100" r="70" stroke="#2196F3" stroke-width="4"/>
  <circle cx="70" cy="80" r="12" fill="#2196F3"/>
  <circle cx="130" cy="80" r="12" fill="#2196F3"/>
  <path d="M65 120C65 137.673 80.5279 152 100 152C119.472 152 135 137.673 135 120" stroke="#2196F3" stroke-width="6" stroke-linecap="round"/>
  <path d="M40 80C40 80 60 40 100 40C140 40 160 80 160 80" stroke="#2196F3" stroke-width="6" stroke-linecap="round"/>
  <path d="M50 160C50 160 60 170 100 170C140 170 150 160 150 160" stroke="#2196F3" stroke-width="6" stroke-linecap="round"/>
  <path d="M180 100C180 100 190 120 190 130" stroke="#2196F3" stroke-width="4" stroke-linecap="round"/>
  <path d="M170 140C170 140 180 150 180 160" stroke="#2196F3" stroke-width="4" stroke-linecap="round"/>
  <path d="M20 100C20 100 10 120 10 130" stroke="#2196F3" stroke-width="4" stroke-linecap="round"/>
  <path d="M30 140C30 140 20 150 20 160" stroke="#2196F3" stroke-width="4" stroke-linecap="round"/>
</svg>
